# xmcd
#
# Track frame offsets:
#	150
#	15941
#	26038
#	44018
#	60319
#	77044
#
# Disc length: 1216 seconds
#
# Revision: 1
# Processed by: cddbd v1.5.2PL0 Copyright (c) Steve Scherf et al.
# Submitted via: audiograbber 1.83.01
#
DISCID=3e04be06
DTITLE=Boxcar Guitars - Lamplight
DYEAR=2006
DGENRE=
TTITLE0=My Love Is Blue
TTITLE1=This Heat, This Heat
TTITLE2=Broken Hills
TTITLE3=The Ballad Of Mad Ave
TTITLE4=Fading, Love Is On Decline
TTITLE5=My Love Is Blue (Grand Version)
EXTD=
EXTT0=
EXTT1=
EXTT2=
EXTT3=
EXTT4=
EXTT5=
PLAYORDER=
